# Blender 4.5.3 LTS
# www.blender.org
mtllib right_leg.mtl
o Cube.001
v 0.079988 -9.728209 -1.369761
v 1.972185 -9.728209 0.076435
v 1.716357 -9.728209 -1.120898
v 0.081779 -9.728209 0.158043
v 1.779145 -12.306615 -0.036288
v 1.561400 -12.306615 -1.055384
v 0.168625 -12.306615 -1.267200
v 0.170150 -12.306615 0.033172
v 1.626262 -14.154660 -0.133275
v 1.447257 -14.154660 -0.971060
v 0.302274 -14.154660 -1.145192
v 0.303527 -14.154660 -0.076173
vn -0.9994 -0.0343 0.0012
vn 0.0431 -0.0559 0.9975
vn 0.1503 -0.0341 -0.9881
vn 0.9759 -0.0639 -0.2085
vn 0.0431 -0.0469 0.9980
vn -0.0000 -1.0000 -0.0000
vn 0.1501 -0.0543 -0.9872
vn -0.9974 -0.0721 0.0012
vn 0.9755 -0.0698 -0.2084
vt 0.250000 0.625000
vt 0.250000 0.500000
vt 0.375000 0.625000
vt 0.375000 0.375000
vt 0.375000 0.500000
s 0
usemtl Material
f 4/1/1 1/2/1 7/2/1 8/1/1
f 5/3/2 8/1/2 12/1/2 9/3/2
f 1/4/3 3/5/3 6/5/3 7/4/3
f 3/5/4 2/3/4 5/3/4 6/5/4
f 2/3/5 4/1/5 8/1/5 5/3/5
f 11/2/6 10/5/6 9/3/6 12/1/6
f 7/4/7 6/5/7 10/5/7 11/4/7
f 8/1/8 7/2/8 11/2/8 12/1/8
f 6/5/9 5/3/9 9/3/9 10/5/9
